<svg width="18" height="18" viewBox="0 0 18 18" fill="none" xmlns="http://www.w3.org/2000/svg">
<path opacity="0.25" d="M0.13501 14.7991C0.14501 14.7741 0.154009 14.7501 0.165009 14.7251C0.158009 14.7491 0.14501 14.7741 0.13501 14.7991Z" fill="#5051AE"/>
<path opacity="0.25" d="M16.272 10.6291L13.16 8.66306L14.36 6.78206C14.5883 6.42339 14.71 6.00724 14.711 5.58206V3.23906C14.7105 2.42744 14.4055 1.64554 13.8563 1.04794C13.3071 0.450349 12.5537 0.0805629 11.745 0.0116949C10.9363 -0.0571732 10.1312 0.17989 9.48888 0.676013C8.84654 1.17214 8.41372 1.89121 8.276 2.69106C8.51413 2.85311 8.73645 3.03726 8.94 3.24106C9.36164 3.66033 9.696 4.15899 9.92377 4.70825C10.1515 5.2575 10.2682 5.84645 10.267 6.44106V8.77906C10.268 9.45208 10.0765 10.1113 9.715 10.6791L9.215 11.4681L11.233 12.7431C11.7012 13.0393 12.0872 13.449 12.355 13.9341C12.376 13.9731 12.397 14.0121 12.416 14.0521L17.206 14.0451V12.3151C17.206 11.9785 17.1209 11.6473 16.9584 11.3525C16.796 11.0577 16.5616 10.8088 16.277 10.6291H16.272Z" fill="#5051AE"/>
<path d="M10.538 13.834L7.426 11.868L8.626 9.98701C8.85432 9.62834 8.97605 9.21218 8.977 8.78701V6.44901C8.977 5.58944 8.63554 4.76508 8.02773 4.15727C7.41993 3.54947 6.59557 3.20801 5.736 3.20801C4.87643 3.20801 4.05207 3.54947 3.44427 4.15727C2.83646 4.76508 2.495 5.58944 2.495 6.44901V8.78701C2.49595 9.21218 2.61768 9.62834 2.846 9.98701L4.046 11.868L0.934 13.834C0.648507 14.0132 0.413094 14.2618 0.249758 14.5567C0.0864215 14.8515 0.000493082 15.1829 0 15.52V17.199L11.467 17.181V15.52C11.467 15.1834 11.3819 14.8523 11.2194 14.5575C11.057 14.2627 10.8226 14.0138 10.538 13.834Z" fill="#5051AE"/>
</svg>
