<svg width="17" height="17" viewBox="0 0 17 17" fill="none" xmlns="http://www.w3.org/2000/svg">
<path opacity="0.25" d="M1.466 5.27588H0V16.4139C0 16.5693 0.0617384 16.7184 0.171635 16.8282C0.281531 16.9381 0.430584 16.9999 0.586 16.9999H11.724V15.5349H1.466V5.27588Z" fill="#5051AE"/>
<path opacity="0.25" d="M4.10394 12.8969V2.63794H2.63794V13.7759C2.63794 13.9314 2.69968 14.0804 2.80958 14.1903C2.91947 14.3002 3.06852 14.3619 3.22394 14.3619H14.3619V12.8959L4.10394 12.8969Z" fill="#5051AE"/>
<path d="M16.414 0H5.862C5.70666 0.000264402 5.55776 0.0620894 5.44792 0.171928C5.33808 0.281767 5.27627 0.430665 5.276 0.586V11.138C5.276 11.2934 5.33774 11.4425 5.44763 11.5524C5.55753 11.6623 5.70658 11.724 5.862 11.724H16.414C16.5648 11.7239 16.7098 11.6656 16.8188 11.5613C16.9278 11.457 16.9923 11.3147 16.999 11.164C16.999 11.155 16.999 11.146 16.999 11.137V0.586C16.999 0.430757 16.9374 0.281857 16.8277 0.171989C16.718 0.0621218 16.5692 0.000264921 16.414 0ZM12.314 8.06V9.379H7.33099V8.06H12.314ZM7.33099 6.448V5.129H15.245V6.448M15.245 3.517H7.33099V2.2H15.245V3.517Z" fill="#5051AE"/>
</svg>
