<svg width="17" height="17" viewBox="0 0 17 17" fill="none" xmlns="http://www.w3.org/2000/svg">
<path opacity="0.25" d="M1.466 5.27588H0V16.4139C0 16.5693 0.0617384 16.7184 0.171635 16.8282C0.281531 16.9381 0.430584 16.9999 0.586 16.9999H11.724V15.5349H1.466V5.27588Z" fill="#98A2B3"/>
<path opacity="0.25" d="M4.10419 12.8969V2.63794H2.63818V13.7759C2.63818 13.9314 2.69993 14.0804 2.80982 14.1903C2.91972 14.3002 3.06877 14.3619 3.22418 14.3619H14.3622V12.8959L4.10419 12.8969Z" fill="#98A2B3"/>
<path d="M16.4139 0H5.86188C5.70654 0.000264402 5.55764 0.0620894 5.4478 0.171928C5.33796 0.281767 5.27614 0.430665 5.27588 0.586V11.138C5.27588 11.2934 5.33761 11.4425 5.44751 11.5524C5.55741 11.6623 5.70646 11.724 5.86188 11.724H16.4139C16.5647 11.7239 16.7097 11.6656 16.8187 11.5613C16.9276 11.457 16.9922 11.3147 16.9989 11.164C16.9989 11.155 16.9989 11.146 16.9989 11.137V0.586C16.9989 0.430757 16.9373 0.281857 16.8276 0.171989C16.7179 0.0621218 16.5691 0.000264921 16.4139 0ZM12.3139 8.06V9.379H7.33087V8.06H12.3139ZM7.33087 6.448V5.129H15.2449V6.448M15.2449 3.517H7.33087V2.2H15.2449V3.517Z" fill="#98A2B3"/>
</svg>
