<svg width="16" height="17" viewBox="0 0 16 17" fill="none" xmlns="http://www.w3.org/2000/svg">
<path fill-rule="evenodd" clip-rule="evenodd" d="M1.25244 3.08594C1.62752 2.71086 2.13622 2.50015 2.66666 2.50015H7.33332C7.70151 2.50015 7.99999 2.79863 7.99999 3.16682C7.99999 3.53501 7.70151 3.83348 7.33332 3.83348H2.66666C2.48985 3.83348 2.32028 3.90372 2.19525 4.02875C2.07023 4.15377 1.99999 4.32334 1.99999 4.50015V13.8335C1.99999 14.0103 2.07023 14.1799 2.19525 14.3049C2.32028 14.4299 2.48985 14.5002 2.66666 14.5002H12C12.1768 14.5002 12.3464 14.4299 12.4714 14.3049C12.5964 14.1799 12.6667 14.0103 12.6667 13.8335V9.16682C12.6667 8.79863 12.9651 8.50015 13.3333 8.50015C13.7015 8.50015 14 8.79863 14 9.16682V13.8335C14 14.3639 13.7893 14.8726 13.4142 15.2477C13.0391 15.6228 12.5304 15.8335 12 15.8335H2.66666C2.13622 15.8335 1.62752 15.6228 1.25244 15.2477C0.87737 14.8726 0.666656 14.3639 0.666656 13.8335V4.50015C0.666656 3.96972 0.87737 3.46101 1.25244 3.08594Z" fill="#98A2B3"/>
<path fill-rule="evenodd" clip-rule="evenodd" d="M13.3333 2.41927C13.1351 2.41927 12.9449 2.49803 12.8047 2.63822L6.60197 8.84098L6.24957 10.2506L7.65916 9.89818L13.8619 3.69541C14.0021 3.55522 14.0809 3.36508 14.0809 3.16682C14.0809 2.96856 14.0021 2.77841 13.8619 2.63822C13.7217 2.49803 13.5316 2.41927 13.3333 2.41927ZM11.8619 1.69541C12.2522 1.30517 12.7814 1.08594 13.3333 1.08594C13.8852 1.08594 14.4145 1.30517 14.8047 1.69541C15.195 2.08565 15.4142 2.61493 15.4142 3.16682C15.4142 3.7187 15.195 4.24798 14.8047 4.63822L8.47139 10.9716C8.38596 11.057 8.2789 11.1176 8.16168 11.1469L5.49501 11.8136C5.26783 11.8704 5.02751 11.8038 4.86192 11.6382C4.69633 11.4726 4.62977 11.2323 4.68656 11.0051L5.35323 8.33846C5.38253 8.22124 5.44315 8.11419 5.52859 8.02875L11.8619 1.69541Z" fill="#98A2B3"/>
</svg>
