<svg width="18" height="18" viewBox="0 0 18 18" fill="none" xmlns="http://www.w3.org/2000/svg">
<path d="M1.28033 0.21967C0.987437 -0.0732233 0.512563 -0.0732233 0.21967 0.21967C-0.0732233 0.512563 -0.0732233 0.987437 0.21967 1.28033L3.42636 4.48702C3.64192 4.30146 3.86316 4.122 4.08982 3.94892C4.38881 3.72061 4.80448 3.75168 5.06659 4.00593L1.28033 0.21967Z" fill="#37363B"/>
<path fill-rule="evenodd" clip-rule="evenodd" d="M7.59593 3.91026C8.05558 3.80267 8.52617 3.74889 8.99824 3.75L9 3.75C11.3254 3.75 13.2034 5.08017 14.5466 6.51296C15.2114 7.22205 15.7234 7.93402 16.0692 8.46939C16.2033 8.67702 16.3116 8.85693 16.3935 8.99833C16.0054 9.67362 15.5579 10.3133 15.0561 10.9096C14.7894 11.2266 14.8302 11.6997 15.1471 11.9664C15.4641 12.2331 15.9372 12.1923 16.2039 11.8754C16.8593 11.0965 17.4316 10.2513 17.9114 9.35356C18.0261 9.13902 18.0296 8.88218 17.9208 8.66459L17.25 9C17.9208 8.66459 17.9202 8.6634 17.9202 8.6634L17.9193 8.66165L17.9168 8.65653L17.9082 8.63987L17.8954 8.61514L17.8779 8.58183C17.8518 8.53252 17.814 8.46242 17.7645 8.37449C17.6657 8.19873 17.5201 7.95114 17.3292 7.65561C16.9485 7.06598 16.3824 6.27795 15.6409 5.48704C14.1718 3.91998 11.9251 2.25033 9.00087 2.25C8.41283 2.24869 7.82663 2.31572 7.25407 2.44974C6.85075 2.54414 6.60033 2.94762 6.69474 3.35093C6.78914 3.75425 7.19262 4.00467 7.59593 3.91026ZM9.00087 2.25L9.00176 2.25L9 3V2.25H9.00087ZM17.25 9C16.5792 9.33541 16.5794 9.3358 16.5794 9.3358L17.25 9ZM16.5794 9.3358L16.5789 9.33477L16.5742 9.32571C16.5697 9.31692 16.5623 9.30269 16.5521 9.28341C16.5317 9.24482 16.5 9.18602 16.4572 9.10988C16.4381 9.07601 16.4169 9.03874 16.3935 8.99833C16.3935 8.99833 16.5742 9.32571 16.5794 9.3358ZM5.08274 4.02208L7.93744 6.87677L7.94255 6.88189L11.1181 10.0574L11.1233 10.0626L13.9766 12.9159C13.9797 12.9189 13.9828 12.922 13.9859 12.9251C13.9882 12.9274 13.9905 12.9297 13.9928 12.9321L17.7803 16.7197C18.0732 17.0126 18.0732 17.4874 17.7803 17.7803C17.4874 18.0732 17.0126 18.0732 16.7197 17.7803L13.3696 14.4302C12.0722 15.2652 10.5636 15.7245 9.01226 15.7499L9 15.75C6.07537 15.75 3.82836 14.0802 2.3591 12.513C1.61763 11.7221 1.05155 10.934 0.670752 10.3444C0.479888 10.0489 0.334344 9.80127 0.235479 9.62551C0.186018 9.53758 0.148155 9.46748 0.122065 9.41817C0.109018 9.39352 0.0989064 9.37405 0.0917535 9.36013L0.0832426 9.34347L0.0806543 9.33835L0.0797776 9.3366C0.0797776 9.3366 0.0791797 9.33541 0.75 9L0.0791797 9.33541C-0.029804 9.11744 -0.0260921 8.86011 0.0891333 8.64538C0.937766 7.06387 2.06977 5.65475 3.42636 4.48702L4.49032 5.55098C3.33773 6.52603 2.36201 7.69362 1.60693 9.00237C1.68874 9.14366 1.79694 9.32333 1.93081 9.53061C2.27658 10.066 2.78862 10.7779 3.4534 11.487C4.79546 12.9186 6.67134 14.2477 8.99388 14.25C10.153 14.23 11.2828 13.9143 12.2786 13.3392L10.5373 11.598C10.4182 11.6726 10.2938 11.739 10.1649 11.7964C9.79686 11.9604 9.39961 12.0486 8.9968 12.0557C8.59399 12.0628 8.19387 11.9887 7.82032 11.8378C7.44677 11.6869 7.10743 11.4623 6.82255 11.1774C6.53768 10.8926 6.3131 10.5532 6.16222 10.1797C6.01133 9.80613 5.93723 9.40601 5.94434 9.0032C5.95145 8.60039 6.03962 8.20314 6.20358 7.83514C6.26104 7.70619 6.32739 7.58176 6.40203 7.46269L4.49032 5.55098C4.65664 5.41029 4.82663 5.2736 5.00018 5.14108C5.32938 4.8897 5.39247 4.41903 5.14108 4.08982C5.12276 4.06582 5.10326 4.04324 5.08274 4.02208ZM5.08274 4.02208L5.06659 4.00593C5.07204 4.01122 5.07743 4.0166 5.08274 4.02208ZM7.52092 8.58158C7.47279 8.7259 7.4468 8.87698 7.44411 9.02966C7.44056 9.23107 7.4776 9.43113 7.55305 9.6179C7.62849 9.80468 7.74078 9.97435 7.88321 10.1168C8.02565 10.2592 8.19532 10.3715 8.3821 10.447C8.56887 10.5224 8.76893 10.5594 8.97034 10.5559C9.12302 10.5532 9.2741 10.5272 9.41842 10.4791L7.52092 8.58158Z" fill="#37363B"/>
<path d="M5.00018 5.14108C5.32938 4.8897 5.39247 4.41903 5.14108 4.08982C5.12276 4.06582 5.10326 4.04324 5.08274 4.02208L5.06659 4.00593C4.80448 3.75168 4.38881 3.72061 4.08982 3.94892C3.86316 4.122 3.64192 4.30146 3.42636 4.48702L4.49032 5.55098C4.65664 5.41029 4.82663 5.2736 5.00018 5.14108Z" fill="#37363B"/>
</svg>
