<svg width="21" height="21" viewBox="0 0 21 21" fill="none" xmlns="http://www.w3.org/2000/svg">
<g clip-path="url(#clip0_249_11966)">
<path fill-rule="evenodd" clip-rule="evenodd" d="M10.5 2.625C6.15076 2.625 2.625 6.15076 2.625 10.5C2.625 14.8492 6.15076 18.375 10.5 18.375C14.8492 18.375 18.375 14.8492 18.375 10.5C18.375 6.15076 14.8492 2.625 10.5 2.625ZM0.875 10.5C0.875 5.18426 5.18426 0.875 10.5 0.875C15.8157 0.875 20.125 5.18426 20.125 10.5C20.125 15.8157 15.8157 20.125 10.5 20.125C5.18426 20.125 0.875 15.8157 0.875 10.5Z" fill="#667085"/>
<path fill-rule="evenodd" clip-rule="evenodd" d="M10.5 9.625C10.9832 9.625 11.375 10.0168 11.375 10.5V14C11.375 14.4832 10.9832 14.875 10.5 14.875C10.0168 14.875 9.625 14.4832 9.625 14V10.5C9.625 10.0168 10.0168 9.625 10.5 9.625Z" fill="#667085"/>
<path fill-rule="evenodd" clip-rule="evenodd" d="M9.625 7C9.625 6.51675 10.0168 6.125 10.5 6.125H10.5087C10.992 6.125 11.3837 6.51675 11.3837 7C11.3837 7.48325 10.992 7.875 10.5087 7.875H10.5C10.0168 7.875 9.625 7.48325 9.625 7Z" fill="#667085"/>
</g>
<defs>
<clipPath id="clip0_249_11966">
<rect width="21" height="21" fill="white"/>
</clipPath>
</defs>
</svg>
