<svg width="133" height="60" viewBox="0 0 133 60" fill="none" xmlns="http://www.w3.org/2000/svg">
<path d="M66.2518 34.6003L57.5405 23.9057L53.8849 27.7168V34.6003H47.6237V7.37756H53.8849V20.0945L65.9407 7.37756H72.9408L61.6628 19.5111L73.6019 34.6003H66.2518Z" fill="#1F1B2B"/>
<path d="M75.6333 34.6003V7.37756H88.0002C96.9059 7.37756 103.012 12.7443 103.012 20.9889C103.012 29.2335 96.9059 34.6003 88.0002 34.6003H75.6333ZM81.9334 29.428H87.6891C93.0947 29.428 96.6337 26.2001 96.6337 20.9889C96.6337 15.7777 93.0947 12.5499 87.6891 12.5499H81.9334V29.428Z" fill="#1F1B2B"/>
<path d="M125.38 28.5335V20.5611H131.135V31.6058C128.141 33.8614 124.019 35.067 120.13 35.067C111.574 35.067 105.274 29.1946 105.274 20.9889C105.274 12.7832 111.574 6.91089 120.246 6.91089C125.03 6.91089 128.997 8.54425 131.641 11.6165L127.597 15.3499C125.613 13.2499 123.319 12.2777 120.558 12.2777C115.269 12.2777 111.652 15.8166 111.652 20.9889C111.652 26.0835 115.269 29.7002 120.48 29.7002C122.191 29.7002 123.785 29.3891 125.38 28.5335Z" fill="#1F1B2B"/>
<path d="M0.359009 15.0701L10.9219 8.23421L17.7579 18.7971L7.19495 25.6331L0.359009 15.0701Z" fill="#CCE545"/>
<path d="M8.59329 27.7936L19.1562 20.9577L25.9921 31.5206L15.4292 38.3566L8.59329 27.7936Z" fill="#8959AD"/>
<path d="M13.0825 6.83594L23.6454 0L30.4814 10.5629L19.9185 17.3988L13.0825 6.83594Z" fill="#21B9EF"/>
<path d="M21.3168 19.5594L31.8797 12.7235L38.7157 23.2864L28.1527 30.1223L21.3168 19.5594Z" fill="#FF7E25"/>
<path d="M21.5895 55.2796V47.895H24.6408C24.7126 47.895 24.8049 47.8984 24.9177 47.9053C25.0305 47.9087 25.1348 47.919 25.2305 47.936C25.6579 48.001 26.01 48.1429 26.2869 48.3617C26.5673 48.5805 26.7741 48.8574 26.9074 49.1925C27.0442 49.5241 27.1126 49.8933 27.1126 50.3001C27.1126 50.7036 27.0442 51.0728 26.9074 51.4078C26.7707 51.7395 26.5621 52.0147 26.2818 52.2335C26.0049 52.4523 25.6544 52.5942 25.2305 52.6591C25.1348 52.6728 25.0288 52.6831 24.9126 52.6899C24.7997 52.6967 24.7091 52.7001 24.6408 52.7001H22.8254V55.2796H21.5895ZM22.8254 51.5463H24.5895C24.6579 51.5463 24.7348 51.5429 24.8202 51.536C24.9057 51.5292 24.9843 51.5155 25.0561 51.495C25.2613 51.4437 25.422 51.3531 25.5382 51.2232C25.6579 51.0933 25.7416 50.9463 25.7895 50.7822C25.8408 50.6181 25.8664 50.4574 25.8664 50.3001C25.8664 50.1429 25.8408 49.9822 25.7895 49.8181C25.7416 49.6506 25.6579 49.5019 25.5382 49.3719C25.422 49.242 25.2613 49.1514 25.0561 49.1001C24.9843 49.0796 24.9057 49.0677 24.8202 49.0643C24.7348 49.0574 24.6579 49.054 24.5895 49.054H22.8254V51.5463Z" fill="#555458"/>
<path d="M30.5985 55.4335C30.0447 55.4335 29.5609 55.3087 29.1472 55.0591C28.7336 54.8095 28.4122 54.466 28.1831 54.0284C27.9575 53.5873 27.8447 53.0813 27.8447 52.5104C27.8447 51.9292 27.9609 51.4198 28.1934 50.9822C28.4259 50.5446 28.749 50.2027 29.1626 49.9566C29.5763 49.7104 30.0549 49.5873 30.5985 49.5873C31.1558 49.5873 31.6413 49.7121 32.0549 49.9617C32.4686 50.2113 32.79 50.5566 33.019 50.9976C33.2481 51.4352 33.3626 51.9395 33.3626 52.5104C33.3626 53.0848 33.2464 53.5925 33.0139 54.0335C32.7849 54.4711 32.4635 54.8147 32.0498 55.0642C31.6361 55.3104 31.1524 55.4335 30.5985 55.4335ZM30.5985 54.2745C31.0908 54.2745 31.4567 54.1104 31.696 53.7822C31.9353 53.454 32.0549 53.0301 32.0549 52.5104C32.0549 51.9737 31.9336 51.5463 31.6908 51.2284C31.4481 50.907 31.084 50.7463 30.5985 50.7463C30.2669 50.7463 29.9934 50.8215 29.778 50.9719C29.5661 51.119 29.4088 51.3258 29.3062 51.5925C29.2037 51.8557 29.1524 52.1617 29.1524 52.5104C29.1524 53.0472 29.2737 53.4762 29.5165 53.7976C29.7626 54.1155 30.1233 54.2745 30.5985 54.2745Z" fill="#555458"/>
<path d="M35.5743 55.2796L33.8819 49.7309L35.0922 49.7412L36.1743 53.295L37.2717 49.7412H38.3127L39.405 53.295L40.4922 49.7412H41.7025L40.0101 55.2796H39.046L37.7896 51.4694L36.5384 55.2796H35.5743Z" fill="#555458"/>
<path d="M45.0481 55.4335C44.4874 55.4335 43.9951 55.3121 43.5712 55.0694C43.1473 54.8266 42.8157 54.4899 42.5763 54.0591C42.3404 53.6284 42.2225 53.1326 42.2225 52.5719C42.2225 51.9668 42.3387 51.442 42.5712 50.9976C42.8037 50.5497 43.1268 50.2027 43.5404 49.9566C43.9541 49.7104 44.4327 49.5873 44.9763 49.5873C45.5507 49.5873 46.0379 49.7224 46.4379 49.9925C46.8413 50.2591 47.1404 50.6369 47.3353 51.1258C47.5302 51.6147 47.6037 52.1907 47.5558 52.854H46.3302V52.4027C46.3268 51.801 46.2208 51.3617 46.0122 51.0848C45.8037 50.8078 45.4755 50.6694 45.0276 50.6694C44.5216 50.6694 44.1456 50.8266 43.8994 51.1412C43.6533 51.4523 43.5302 51.9087 43.5302 52.5104C43.5302 53.0711 43.6533 53.5053 43.8994 53.813C44.1456 54.1207 44.5045 54.2745 44.9763 54.2745C45.2806 54.2745 45.5421 54.2078 45.761 54.0745C45.9832 53.9378 46.1541 53.7412 46.2738 53.4848L47.4943 53.854C47.2823 54.3531 46.9541 54.7412 46.5097 55.0181C46.0686 55.295 45.5815 55.4335 45.0481 55.4335ZM43.1404 52.854V51.9207H46.9507V52.854H43.1404Z" fill="#555458"/>
<path d="M48.8026 55.2796V49.7412H49.8949V51.0899L49.7616 50.9155C49.83 50.7309 49.9206 50.5634 50.0334 50.413C50.1496 50.2591 50.2881 50.1326 50.4488 50.0335C50.5855 49.9412 50.736 49.8694 50.9001 49.8181C51.0676 49.7634 51.2385 49.7309 51.4129 49.7207C51.5872 49.707 51.7565 49.7138 51.9206 49.7412V50.895C51.7565 50.8472 51.5667 50.8318 51.3513 50.8489C51.1394 50.866 50.9479 50.9258 50.777 51.0284C50.606 51.1207 50.4659 51.2386 50.3565 51.3822C50.2505 51.5258 50.1718 51.6899 50.1206 51.8745C50.0693 52.0557 50.0436 52.2523 50.0436 52.4643V55.2796H48.8026Z" fill="#555458"/>
<path d="M55.4195 55.4335C54.8588 55.4335 54.3665 55.3121 53.9426 55.0694C53.5187 54.8266 53.187 54.4899 52.9477 54.0591C52.7118 53.6284 52.5939 53.1326 52.5939 52.5719C52.5939 51.9668 52.7101 51.442 52.9426 50.9976C53.1751 50.5497 53.4982 50.2027 53.9118 49.9566C54.3255 49.7104 54.8041 49.5873 55.3477 49.5873C55.9221 49.5873 56.4093 49.7224 56.8093 49.9925C57.2127 50.2591 57.5118 50.6369 57.7067 51.1258C57.9016 51.6147 57.9751 52.1907 57.9272 52.854H56.7016V52.4027C56.6982 51.801 56.5922 51.3617 56.3836 51.0848C56.1751 50.8078 55.8469 50.6694 55.399 50.6694C54.893 50.6694 54.517 50.8266 54.2708 51.1412C54.0247 51.4523 53.9016 51.9087 53.9016 52.5104C53.9016 53.0711 54.0247 53.5053 54.2708 53.813C54.517 54.1207 54.8759 54.2745 55.3477 54.2745C55.652 54.2745 55.9135 54.2078 56.1323 54.0745C56.3546 53.9378 56.5255 53.7412 56.6452 53.4848L57.8657 53.854C57.6537 54.3531 57.3255 54.7412 56.8811 55.0181C56.44 55.295 55.9529 55.4335 55.4195 55.4335ZM53.5118 52.854V51.9207H57.3221V52.854H53.5118Z" fill="#555458"/>
<path d="M61.3945 55.4335C60.8851 55.4335 60.4407 55.3053 60.0612 55.0489C59.6817 54.7925 59.3877 54.4437 59.1791 54.0027C58.9706 53.5617 58.8663 53.0642 58.8663 52.5104C58.8663 51.9497 58.9706 51.4506 59.1791 51.013C59.3911 50.5719 59.6903 50.2249 60.0766 49.9719C60.4629 49.7155 60.9176 49.5873 61.4407 49.5873C61.9672 49.5873 62.4082 49.7155 62.7638 49.9719C63.1227 50.2249 63.3945 50.5719 63.5791 51.013C63.7638 51.454 63.8561 51.9531 63.8561 52.5104C63.8561 53.0608 63.7638 53.5583 63.5791 54.0027C63.3945 54.4437 63.1193 54.7925 62.7535 55.0489C62.3877 55.3053 61.9347 55.4335 61.3945 55.4335ZM61.5843 54.3258C61.9159 54.3258 62.1826 54.2506 62.3843 54.1001C62.5894 53.9463 62.7381 53.7326 62.8304 53.4591C62.9261 53.1856 62.974 52.8694 62.974 52.5104C62.974 52.148 62.9261 51.8318 62.8304 51.5617C62.7381 51.2882 62.5928 51.0762 62.3945 50.9258C62.1962 50.7719 61.9398 50.695 61.6253 50.695C61.2937 50.695 61.0202 50.7771 60.8048 50.9412C60.5894 51.1019 60.4304 51.3207 60.3279 51.5976C60.2253 51.8711 60.174 52.1754 60.174 52.5104C60.174 52.8489 60.2236 53.1566 60.3227 53.4335C60.4253 53.707 60.5808 53.9241 60.7894 54.0848C60.9979 54.2454 61.2629 54.3258 61.5843 54.3258ZM62.974 55.2796V51.3925H62.8202V47.895H64.0663V55.2796H62.974Z" fill="#555458"/>
<path d="M70.4241 55.4335C69.8839 55.4335 69.4309 55.3053 69.0651 55.0489C68.6993 54.7925 68.4241 54.4437 68.2395 54.0027C68.0549 53.5583 67.9626 53.0608 67.9626 52.5104C67.9626 51.9531 68.0549 51.454 68.2395 51.013C68.4241 50.5719 68.6942 50.2249 69.0497 49.9719C69.4087 49.7155 69.8514 49.5873 70.3779 49.5873C70.901 49.5873 71.354 49.7155 71.7369 49.9719C72.1232 50.2249 72.4224 50.5719 72.6343 51.013C72.8463 51.4506 72.9523 51.9497 72.9523 52.5104C72.9523 53.0642 72.848 53.5617 72.6395 54.0027C72.4309 54.4437 72.1369 54.7925 71.7574 55.0489C71.3779 55.3053 70.9335 55.4335 70.4241 55.4335ZM67.7523 55.2796V47.895H68.9985V51.3925H68.8446V55.2796H67.7523ZM70.2343 54.3258C70.5557 54.3258 70.8207 54.2454 71.0292 54.0848C71.2378 53.9241 71.3916 53.707 71.4908 53.4335C71.5933 53.1566 71.6446 52.8489 71.6446 52.5104C71.6446 52.1754 71.5933 51.8711 71.4908 51.5976C71.3882 51.3207 71.2292 51.1019 71.0138 50.9412C70.7985 50.7771 70.5249 50.695 70.1933 50.695C69.8788 50.695 69.6224 50.7719 69.4241 50.9258C69.2258 51.0762 69.0788 51.2882 68.9831 51.5617C68.8908 51.8318 68.8446 52.148 68.8446 52.5104C68.8446 52.8694 68.8908 53.1856 68.9831 53.4591C69.0788 53.7326 69.2275 53.9463 69.4292 54.1001C69.6343 54.2506 69.9027 54.3258 70.2343 54.3258Z" fill="#555458"/>
<path d="M74.5428 57.7412L75.6095 54.813L75.63 55.6745L73.2146 49.7412H74.5018L76.2146 54.1309H75.8864L77.5531 49.7412H78.789L75.7018 57.7412H74.5428Z" fill="#555458"/>
<path d="M111.087 52.3188V59.0388H108.565V57.6443C107.925 58.6304 106.684 59.189 104.975 59.189C102.369 59.189 100.724 57.7512 100.724 55.7545C100.724 53.8426 102.006 52.341 105.468 52.341H108.416V52.1688C108.416 50.6017 107.475 49.6776 105.574 49.6776C104.293 49.6776 102.968 50.1069 102.112 50.8155L101.065 48.8621C102.284 47.9174 104.058 47.445 105.895 47.445C109.184 47.445 111.087 49.0121 111.087 52.3188ZM108.416 55.4531V54.1221H105.66C103.843 54.1221 103.353 54.81 103.353 55.6461C103.353 56.6133 104.164 57.2357 105.531 57.2357C106.835 57.2357 107.968 56.6337 108.416 55.4531Z" fill="#1F1B2B"/>
<path d="M120.64 58.4166C119.998 58.9321 119.037 59.189 118.075 59.189C115.575 59.189 114.144 57.858 114.144 55.3254V49.8069H112.264V47.6605H114.144V45.0417H116.814V47.6605H119.869V49.8069H116.814V55.2599C116.814 56.377 117.37 56.9787 118.396 56.9787C118.952 56.9787 119.485 56.827 119.892 56.5063L120.64 58.4166Z" fill="#1F1B2B"/>
<path d="M121.515 53.3067C121.515 49.8724 124.08 47.445 127.689 47.445C129.911 47.445 131.685 48.3691 132.56 50.1069L130.51 51.3102C129.825 50.2155 128.801 49.7207 127.669 49.7207C125.703 49.7207 124.207 51.0948 124.207 53.3067C124.207 55.5392 125.703 56.8926 127.669 56.8926C128.801 56.8926 129.826 56.3978 130.51 55.3031L132.56 56.5064C131.685 58.2235 129.911 59.189 127.69 59.189C124.08 59.189 121.515 56.7426 121.515 53.3067Z" fill="#1F1B2B"/>
<path d="M95.451 44.9579L90.6682 42.7009L88.4222 47.5069L93.2049 49.7638L95.451 44.9579Z" fill="#D3DF5F"/>
<path d="M98.0071 52.0305L93.2238 49.7726L90.9768 54.5791L95.7601 56.837L98.0071 52.0305Z" fill="#51BBEA"/>
<path d="M90.9793 54.5755L86.1959 52.3176L83.9489 57.1242L88.7323 59.3821L90.9793 54.5755Z" fill="#8263AA"/>
<path d="M102.476 42.4083L97.6929 40.1514L95.4468 44.9573L100.23 47.2143L102.476 42.4083Z" fill="#F48446"/>
</svg>
