<svg width="16" height="17" viewBox="0 0 16 17" fill="none" xmlns="http://www.w3.org/2000/svg">
<path fill-rule="evenodd" clip-rule="evenodd" d="M3.33334 3.16683C3.15653 3.16683 2.98696 3.23707 2.86194 3.36209C2.73691 3.48712 2.66668 3.65668 2.66668 3.8335V13.1668C2.66668 13.3436 2.73691 13.5132 2.86194 13.6382C2.98696 13.7633 3.15653 13.8335 3.33334 13.8335H6.00001C6.3682 13.8335 6.66668 14.132 6.66668 14.5002C6.66668 14.8684 6.3682 15.1668 6.00001 15.1668H3.33334C2.80291 15.1668 2.2942 14.9561 1.91913 14.581C1.54406 14.206 1.33334 13.6973 1.33334 13.1668V3.8335C1.33334 3.30306 1.54406 2.79436 1.91913 2.41928C2.2942 2.04421 2.80291 1.8335 3.33334 1.8335H6.00001C6.3682 1.8335 6.66668 2.13197 6.66668 2.50016C6.66668 2.86835 6.3682 3.16683 6.00001 3.16683H3.33334Z" fill="#98A2B3"/>
<path d="M14.4714 8.02876C14.3508 7.90835 14.1839 7.8335 14 7.8335H12.3905L13.0572 8.50016L12.3905 9.16683H14C14.2781 9.16683 14.5165 8.99653 14.6164 8.75452C14.649 8.6754 14.6658 8.59128 14.6666 8.50701C14.6667 8.50237 14.6667 8.49773 14.6666 8.49309C14.6666 8.48478 14.6663 8.47648 14.6659 8.46818C14.6657 8.46342 14.6654 8.45866 14.6651 8.45391C14.6601 8.38258 14.6438 8.31189 14.616 8.24482C14.583 8.16515 14.5349 8.09328 14.4754 8.03274C14.4741 8.03141 14.4727 8.03008 14.4714 8.02876Z" fill="#98A2B3"/>
<path d="M6.00001 7.8335C5.63182 7.8335 5.33334 8.13197 5.33334 8.50016C5.33334 8.86835 5.63182 9.16683 6.00001 9.16683H12.3905L13.0572 8.50016L12.3905 7.8335H6.00001Z" fill="#98A2B3"/>
<path d="M11.1381 4.69543C10.8777 4.43508 10.4556 4.43508 10.1953 4.69543C9.93492 4.95577 9.93492 5.37788 10.1953 5.63823L12.3905 7.8335H14C14.1839 7.8335 14.3508 7.90835 14.4714 8.02876L11.1381 4.69543Z" fill="#98A2B3"/>
<path d="M11.1381 12.3049L14.4714 8.97157C14.5356 8.90743 14.5839 8.83346 14.6164 8.75452C14.5165 8.99653 14.2781 9.16683 14 9.16683H12.3905L10.1953 11.3621C9.93492 11.6224 9.93492 12.0446 10.1953 12.3049C10.4556 12.5653 10.8777 12.5653 11.1381 12.3049Z" fill="#98A2B3"/>
</svg>
