<svg width="256" height="215" viewBox="0 0 256 215" fill="none" xmlns="http://www.w3.org/2000/svg">
<g clip-path="url(#clip0_73_25288)">
<path fill-rule="evenodd" clip-rule="evenodd" d="M119 212C89.3509 203.392 80.0661 180.701 58.5002 158.5C33.3207 132.58 3.0051 120 3.00511 86.1998C3.00511 57 15.1409 25.4907 46.8922 10.5C77.8998 -4.13954 109.693 47.0828 142.5 57C178.243 67.8046 237.484 51.1771 244.92 87.9326C252.133 123.582 248.647 166.856 224 193.5C201.178 218.17 150 221 119 212Z" fill="#2A94F4" fill-opacity="0.08"/>
<g clip-path="url(#clip1_73_25288)">
<path d="M193.379 72.8484V148.194C193.379 152.449 189.932 155.895 185.678 155.895H64.3172C60.0637 155.895 56.6167 152.449 56.6167 148.194V72.8484C56.6167 71.4873 56.9678 70.2117 57.5901 69.103L60.5746 66.1176L119.253 7.43948C122.426 4.26698 127.57 4.26698 130.742 7.43948L189.421 66.118L192.406 69.1035C193.047 70.2472 193.383 71.5371 193.379 72.8484Z" fill="#0E538C"/>
<path d="M182.852 31.6562V148.76C182.852 152.701 179.658 155.899 175.713 155.899H74.2829C70.332 155.899 67.1436 152.701 67.1436 148.76V31.6562C67.1436 27.7153 70.332 24.5174 74.2829 24.5174H175.713C179.658 24.5174 182.852 27.7153 182.852 31.6562Z" fill="#CCE9FF"/>
<path d="M129.222 64.4406C129.222 66.3249 127.689 67.858 125.8 67.858H93.5448C92.6385 67.8579 91.7694 67.4978 91.1285 66.8569C90.4877 66.2161 90.1276 65.3469 90.1274 64.4406C90.1274 63.4931 90.5081 62.641 91.1271 62.0225C91.4445 61.7048 91.8215 61.4529 92.2365 61.2814C92.6515 61.1098 93.0962 61.0219 93.5453 61.0228H125.8C127.689 61.0233 129.222 62.5508 129.222 64.4406ZM159.868 51.3182C159.868 53.2025 158.336 54.7356 156.446 54.7356H93.5448C92.6385 54.7355 91.7694 54.3754 91.1285 53.7345C90.4877 53.0937 90.1276 52.2245 90.1274 51.3182C90.1274 50.3754 90.5081 49.5195 91.1271 48.9001C91.4442 48.5817 91.8211 48.3291 92.2361 48.1568C92.651 47.9844 93.0959 47.8957 93.5453 47.8957H156.446C157.354 47.8959 158.224 48.2566 158.866 48.8984C159.508 49.5402 159.868 50.4106 159.868 51.3182ZM129.222 96.7715C129.222 98.6562 127.689 100.189 125.8 100.189H93.5448C92.6385 100.189 91.7692 99.8288 91.1284 99.1879C90.4875 98.547 90.1274 97.6778 90.1274 96.7715C90.1274 95.8244 90.5081 94.9718 91.1271 94.3533C91.4446 94.0358 91.8216 93.784 92.2366 93.6126C92.6515 93.4411 93.0963 93.3533 93.5453 93.3541H125.8C127.689 93.3546 129.222 94.8821 129.222 96.7715ZM159.868 83.6495C159.868 85.5338 158.336 87.0669 156.446 87.0669H93.5448C92.6385 87.0668 91.7694 86.7067 91.1285 86.0658C90.4877 85.425 90.1276 84.5558 90.1274 83.6495C90.1274 82.7067 90.5081 81.8508 91.1271 81.2314C91.4442 80.9131 91.8211 80.6605 92.2361 80.4883C92.6511 80.316 93.096 80.2273 93.5453 80.2275H156.446C157.354 80.2277 158.224 80.5883 158.866 81.23C159.508 81.8717 159.868 82.742 159.868 83.6495ZM129.222 129.103C129.222 130.987 127.689 132.52 125.8 132.52H93.5448C92.6386 132.52 91.7694 132.16 91.1285 131.519C90.4877 130.879 90.1276 130.009 90.1274 129.103C90.1274 128.156 90.5081 127.303 91.1271 126.685C91.4445 126.367 91.8215 126.116 92.2365 125.944C92.6515 125.772 93.0962 125.685 93.5453 125.685H125.8C127.689 125.686 129.222 127.213 129.222 129.103ZM159.868 115.981C159.868 117.866 158.336 119.398 156.446 119.398H93.5448C92.6385 119.398 91.7692 119.038 91.1284 118.397C90.4875 117.756 90.1274 116.887 90.1274 115.981C90.1274 115.038 90.5081 114.182 91.1271 113.563C91.4442 113.244 91.8211 112.992 92.2361 112.82C92.6511 112.647 93.096 112.559 93.5453 112.559H156.446C157.354 112.559 158.224 112.92 158.866 113.561C159.508 114.203 159.868 115.073 159.868 115.981Z" fill="#F7F7F7"/>
<path d="M136.21 149.55L130.743 155.017C127.57 158.19 122.426 158.19 119.254 155.017L113.786 149.55H136.21Z" fill="url(#paint0_linear_73_25288)"/>
<path d="M193.379 87.255V162.601C193.379 166.852 189.932 170.302 185.678 170.302H64.3172C60.0637 170.302 56.6167 166.852 56.6167 162.601V87.255C56.6167 85.9949 56.9189 84.8062 57.4575 83.7558L119.253 145.551C122.426 148.724 127.57 148.724 130.742 145.551L192.538 83.7558C193.093 84.8384 193.382 86.0382 193.379 87.255Z" fill="#2A94F4"/>
</g>
<path d="M234.538 51.1573C234.902 49.6142 237.098 49.6142 237.462 51.1573L240.567 64.3157C240.698 64.8696 241.13 65.3021 241.684 65.4328L254.843 68.5378C256.386 68.9019 256.386 71.0981 254.843 71.4622L241.684 74.5672C241.13 74.6979 240.698 75.1304 240.567 75.6843L237.462 88.8427C237.098 90.3858 234.902 90.3858 234.538 88.8427L231.433 75.6843C231.302 75.1304 230.87 74.6979 230.316 74.5672L217.157 71.4622C215.614 71.0981 215.614 68.9019 217.157 68.5378L230.316 65.4328C230.87 65.3021 231.302 64.8696 231.433 64.3157L234.538 51.1573Z" fill="#FFD952"/>
<path d="M34.5378 171.157C34.9019 169.614 37.0981 169.614 37.4622 171.157L40.5672 184.316C40.6979 184.87 41.1304 185.302 41.6843 185.433L54.8427 188.538C56.3858 188.902 56.3858 191.098 54.8427 191.462L41.6843 194.567C41.1304 194.698 40.6979 195.13 40.5672 195.684L37.4622 208.843C37.0981 210.386 34.9019 210.386 34.5378 208.843L31.4328 195.684C31.3021 195.13 30.8696 194.698 30.3157 194.567L17.1573 191.462C15.6142 191.098 15.6142 188.902 17.1573 188.538L30.3157 185.433C30.8696 185.302 31.3021 184.87 31.4328 184.316L34.5378 171.157Z" fill="#FFD952"/>
<path d="M25.2689 30.5787C25.451 29.8071 26.549 29.8071 26.7311 30.5787L28.2836 37.1578C28.3489 37.4348 28.5652 37.6511 28.8422 37.7164L35.4213 39.2689C36.1929 39.451 36.1929 40.549 35.4213 40.7311L28.8422 42.2836C28.5652 42.3489 28.3489 42.5652 28.2836 42.8422L26.7311 49.4213C26.549 50.1929 25.451 50.1929 25.2689 49.4213L23.7164 42.8422C23.6511 42.5652 23.4348 42.3489 23.1578 42.2836L16.5787 40.7311C15.8071 40.549 15.8071 39.451 16.5787 39.2689L23.1578 37.7164C23.4348 37.6511 23.6511 37.4348 23.7164 37.1578L25.2689 30.5787Z" fill="#FFD952"/>
<path d="M196.903 152.868C197.176 151.711 198.824 151.711 199.097 152.868L201.425 162.737C201.523 163.152 201.848 163.477 202.263 163.575L212.132 165.903C213.289 166.176 213.289 167.824 212.132 168.097L202.263 170.425C201.848 170.523 201.523 170.848 201.425 171.263L199.097 181.132C198.824 182.289 197.176 182.289 196.903 181.132L194.575 171.263C194.477 170.848 194.152 170.523 193.737 170.425L183.868 168.097C182.711 167.824 182.711 166.176 183.868 165.903L193.737 163.575C194.152 163.477 194.477 163.152 194.575 162.737L196.903 152.868Z" fill="#FFD952"/>
</g>
<defs>
<linearGradient id="paint0_linear_73_25288" x1="124.998" y1="149.55" x2="124.998" y2="157.396" gradientUnits="userSpaceOnUse">
<stop offset="0.288" stop-color="#E8F0F4"/>
<stop offset="0.921" stop-color="#C2E4F3"/>
<stop offset="1" stop-color="#A6E3FF"/>
</linearGradient>
<clipPath id="clip0_73_25288">
<rect width="256" height="215" fill="white"/>
</clipPath>
<clipPath id="clip1_73_25288">
<rect width="138" height="166" fill="white" transform="translate(56 5)"/>
</clipPath>
</defs>
</svg>
