<svg width="34" height="34" viewBox="0 0 34 34" fill="none" xmlns="http://www.w3.org/2000/svg">
<rect width="34" height="34" rx="17" fill="#F1F5FB"/>
<g clip-path="url(#clip0_338_6959)">
<path d="M14 17.75H9.5C9.30109 17.75 9.11032 17.671 8.96967 17.5303C8.82902 17.3897 8.75 17.1989 8.75 17V11.75C8.75 10.9544 9.06607 10.1913 9.62868 9.62868C10.1913 9.06607 10.9544 8.75 11.75 8.75C12.5456 8.75 13.3087 9.06607 13.8713 9.62868C14.4339 10.1913 14.75 10.9544 14.75 11.75V17C14.75 17.1989 14.671 17.3897 14.5303 17.5303C14.3897 17.671 14.1989 17.75 14 17.75ZM10.25 16.25H13.25V11.75C13.25 11.3522 13.092 10.9706 12.8107 10.6893C12.5294 10.408 12.1478 10.25 11.75 10.25C11.3522 10.25 10.9706 10.408 10.6893 10.6893C10.408 10.9706 10.25 11.3522 10.25 11.75V16.25Z" fill="#6A6BBA"/>
<path d="M24.5 25.25C24.3212 25.25 24.1484 25.1862 24.0125 25.07L21.875 23.24L19.7375 25.07C19.6017 25.1862 19.4288 25.25 19.25 25.25C19.0712 25.25 18.8983 25.1862 18.7625 25.07L16.625 23.24L14.4875 25.07C14.3786 25.1636 14.245 25.224 14.1028 25.244C13.9605 25.2639 13.8155 25.2426 13.685 25.1825C13.5548 25.1223 13.4446 25.0259 13.3675 24.905C13.2904 24.784 13.2496 24.6434 13.25 24.5V11.75C13.25 11.3522 13.092 10.9706 12.8107 10.6893C12.5294 10.408 12.1478 10.25 11.75 10.25C11.5511 10.25 11.3603 10.171 11.2197 10.0303C11.079 9.88968 11 9.69891 11 9.5C11 9.30109 11.079 9.11032 11.2197 8.96967C11.3603 8.82902 11.5511 8.75 11.75 8.75H22.25C23.0456 8.75 23.8087 9.06607 24.3713 9.62868C24.9339 10.1913 25.25 10.9544 25.25 11.75V24.5C25.2504 24.6434 25.2096 24.784 25.1325 24.905C25.0554 25.0259 24.9452 25.1223 24.815 25.1825C24.7157 25.2263 24.6085 25.2492 24.5 25.25ZM16.625 21.5C16.8038 21.5 16.9766 21.5638 17.1125 21.68L19.25 23.51L21.3875 21.68C21.5233 21.5638 21.6962 21.5 21.875 21.5C22.0538 21.5 22.2267 21.5638 22.3625 21.68L23.75 22.8725V11.75C23.75 11.3522 23.592 10.9706 23.3107 10.6893C23.0294 10.408 22.6478 10.25 22.25 10.25H14.345C14.6094 10.7058 14.7491 11.2231 14.75 11.75V22.8725L16.1375 21.68C16.2734 21.5638 16.4462 21.5 16.625 21.5Z" fill="#6A6BBA"/>
<path d="M21.5 13.25H17C16.8011 13.25 16.6103 13.171 16.4697 13.0303C16.329 12.8897 16.25 12.6989 16.25 12.5C16.25 12.3011 16.329 12.1103 16.4697 11.9697C16.6103 11.829 16.8011 11.75 17 11.75H21.5C21.6989 11.75 21.8897 11.829 22.0303 11.9697C22.171 12.1103 22.25 12.3011 22.25 12.5C22.25 12.6989 22.171 12.8897 22.0303 13.0303C21.8897 13.171 21.6989 13.25 21.5 13.25ZM21.5 16.25H17C16.8011 16.25 16.6103 16.171 16.4697 16.0303C16.329 15.8897 16.25 15.6989 16.25 15.5C16.25 15.3011 16.329 15.1103 16.4697 14.9697C16.6103 14.829 16.8011 14.75 17 14.75H21.5C21.6989 14.75 21.8897 14.829 22.0303 14.9697C22.171 15.1103 22.25 15.3011 22.25 15.5C22.25 15.6989 22.171 15.8897 22.0303 16.0303C21.8897 16.171 21.6989 16.25 21.5 16.25ZM21.5 19.25H17C16.8011 19.25 16.6103 19.171 16.4697 19.0303C16.329 18.8897 16.25 18.6989 16.25 18.5C16.25 18.3011 16.329 18.1103 16.4697 17.9697C16.6103 17.829 16.8011 17.75 17 17.75H21.5C21.6989 17.75 21.8897 17.829 22.0303 17.9697C22.171 18.1103 22.25 18.3011 22.25 18.5C22.25 18.6989 22.171 18.8897 22.0303 19.0303C21.8897 19.171 21.6989 19.25 21.5 19.25Z" fill="#6A6BBA"/>
</g>
<defs>
<clipPath id="clip0_338_6959">
<rect width="18" height="18" fill="white" transform="translate(8 8)"/>
</clipPath>
</defs>
</svg>
