<svg width="34" height="34" viewBox="0 0 34 34" fill="none" xmlns="http://www.w3.org/2000/svg">
<rect width="34" height="34" rx="17" fill="#F1F5FB"/>
<path d="M20 14.0002V11.3757C20 10.7519 20 10.44 19.8686 10.2483C19.7538 10.0809 19.576 9.96711 19.3758 9.93305C19.1467 9.89406 18.8635 10.0248 18.2971 10.2862L11.6443 13.3567C11.1391 13.5899 10.8866 13.7064 10.7016 13.8872C10.538 14.0471 10.4132 14.2421 10.3366 14.4576C10.25 14.7013 10.25 14.9795 10.25 15.5358V19.2502M20.375 18.8752H20.3825M10.25 16.4002L10.25 21.3502C10.25 22.1903 10.25 22.6104 10.4135 22.9312C10.5573 23.2135 10.7868 23.4429 11.069 23.5867C11.3899 23.7502 11.8099 23.7502 12.65 23.7502H21.35C22.1901 23.7502 22.6101 23.7502 22.931 23.5867C23.2132 23.4429 23.4427 23.2135 23.5865 22.9312C23.75 22.6104 23.75 22.1903 23.75 21.3502V16.4002C23.75 15.5602 23.75 15.1401 23.5865 14.8193C23.4427 14.537 23.2132 14.3075 22.931 14.1637C22.6101 14.0002 22.1901 14.0002 21.35 14.0002L12.65 14.0002C11.8099 14.0002 11.3899 14.0002 11.069 14.1637C10.7868 14.3075 10.5573 14.537 10.4135 14.8193C10.25 15.1401 10.25 15.5602 10.25 16.4002ZM20.75 18.8752C20.75 19.0823 20.5821 19.2502 20.375 19.2502C20.1679 19.2502 20 19.0823 20 18.8752C20 18.6681 20.1679 18.5002 20.375 18.5002C20.5821 18.5002 20.75 18.6681 20.75 18.8752Z" stroke="#6A6BBA" stroke-width="1.6" stroke-linecap="round" stroke-linejoin="round"/>
</svg>
