<svg width="17" height="16" viewBox="0 0 17 16" fill="none" xmlns="http://www.w3.org/2000/svg">
<path opacity="0.25" d="M15.8 2.41602H0V14.332C0 14.5524 0.0875521 14.7638 0.243395 14.9196C0.399238 15.0755 0.610604 15.163 0.830999 15.163H15.8C16.0204 15.163 16.2318 15.0755 16.3876 14.9196C16.5434 14.7638 16.631 14.5524 16.631 14.332V3.24702C16.631 3.02662 16.5434 2.81525 16.3876 2.65941C16.2318 2.50357 16.0204 2.41602 15.8 2.41602Z" fill="#98A2B3"/>
<path d="M7.687 0.688976C7.62606 0.544004 7.52375 0.420203 7.39285 0.333054C7.26194 0.245904 7.10826 0.199269 6.951 0.198975H0.799999C0.587826 0.198975 0.384343 0.283259 0.234314 0.433289C0.0842849 0.583318 0 0.786801 0 0.998974V2.41898H8.406L7.687 0.688976Z" fill="#98A2B3"/>
<path d="M14.268 11.663L12.427 10.463L13.243 8.47696V6.93297C13.2084 6.34746 12.9514 5.79728 12.5247 5.39496C12.0979 4.99263 11.5335 4.76855 10.947 4.76855C10.3604 4.76855 9.79608 4.99263 9.36929 5.39496C8.94251 5.79728 8.68556 6.34746 8.65099 6.93297V8.48396L9.39598 10.516L7.62798 11.663C7.41359 11.8015 7.23725 11.9915 7.11499 12.2155C6.99273 12.4396 6.92845 12.6907 6.92798 12.946V13.777H14.964V12.946C14.9635 12.6907 14.8992 12.4396 14.777 12.2155C14.6547 11.9915 14.4784 11.8015 14.264 11.663H14.268Z" fill="#98A2B3"/>
</svg>
