<svg width="15" height="16" viewBox="0 0 15 16" fill="none" xmlns="http://www.w3.org/2000/svg">
<path d="M14.6906 10.28L13.6456 9.41898C13.831 8.54739 13.831 7.64656 13.6456 6.77498L14.6906 5.91398C14.8113 5.81527 14.8928 5.67683 14.9207 5.52345C14.9485 5.37008 14.9209 5.2118 14.8426 5.07698L13.7686 3.21898C13.691 3.08398 13.5679 2.98098 13.4214 2.9284C13.2748 2.87582 13.1143 2.87709 12.9686 2.93198L11.6996 3.40698C11.0384 2.80953 10.2584 2.35867 9.41062 2.08398L9.18762 0.748976C9.16243 0.595138 9.08329 0.455299 8.96436 0.354515C8.84544 0.253731 8.69451 0.198592 8.53862 0.198977H6.39162C6.23574 0.198592 6.08481 0.253731 5.96588 0.354515C5.84696 0.455299 5.76781 0.595138 5.74262 0.748976L5.51962 2.08398C4.67188 2.35867 3.89181 2.80953 3.23062 3.40698L1.96162 2.93098C1.81591 2.87609 1.65542 2.87482 1.50886 2.9274C1.36229 2.97998 1.23921 3.08298 1.16162 3.21798L0.0886218 5.07698C0.0103801 5.2118 -0.017295 5.37008 0.0105579 5.52345C0.0384107 5.67683 0.11997 5.81527 0.24062 5.91398L1.28562 6.77498C1.10022 7.64656 1.10022 8.54739 1.28562 9.41898L0.24062 10.28C0.11997 10.3787 0.0384107 10.5171 0.0105579 10.6705C-0.017295 10.8239 0.0103801 10.9822 0.0886218 11.117L1.16162 12.976C1.23921 13.111 1.36229 13.214 1.50886 13.2666C1.65542 13.3191 1.81591 13.3179 1.96162 13.263L3.23062 12.788C3.89181 13.3854 4.67188 13.8363 5.51962 14.111L5.74262 15.446C5.76781 15.5998 5.84696 15.7397 5.96588 15.8404C6.08481 15.9412 6.23574 15.9964 6.39162 15.996H8.53762C8.69351 15.9964 8.84444 15.9412 8.96336 15.8404C9.08229 15.7397 9.16143 15.5998 9.18662 15.446L9.40962 14.111C10.2574 13.8363 11.0374 13.3854 11.6986 12.788L12.9676 13.264C13.1133 13.3189 13.2738 13.3201 13.4204 13.2676C13.5669 13.215 13.69 13.112 13.7676 12.977L14.8406 11.118C14.9194 10.9833 14.9475 10.8249 14.92 10.6713C14.8925 10.5178 14.8112 10.379 14.6906 10.28ZM7.46562 10.467C6.99688 10.467 6.53866 10.328 6.14892 10.0676C5.75917 9.80714 5.45541 9.437 5.27603 9.00394C5.09665 8.57088 5.04971 8.09435 5.14116 7.63461C5.23261 7.17488 5.45833 6.75258 5.78978 6.42113C6.12123 6.08968 6.54352 5.86396 7.00326 5.77252C7.46299 5.68107 7.93952 5.728 8.37258 5.90738C8.80564 6.08676 9.17579 6.39053 9.4362 6.78028C9.69662 7.17002 9.83562 7.62824 9.83562 8.09698C9.83562 8.72554 9.58593 9.32836 9.14147 9.77282C8.697 10.2173 8.09419 10.467 7.46562 10.467Z" fill="#98A2B3"/>
</svg>
