<svg width="256" height="215" viewBox="0 0 256 215" fill="none" xmlns="http://www.w3.org/2000/svg">
<g clip-path="url(#clip0_70_12539)">
<path fill-rule="evenodd" clip-rule="evenodd" d="M127.74 214.605C96.9074 213.013 68.4579 201.8 46.892 179.6C21.7125 153.679 -8.45634 120.543 3.00488 86.1998C14.1592 52.7761 61.0756 56.9471 92.8269 41.9564C123.834 27.3168 149.127 -8.19502 181.934 1.72224C217.676 12.5268 237.484 51.1771 244.92 87.9326C252.132 123.582 244.375 161.883 219.728 188.527C196.906 213.197 161.215 216.335 127.74 214.605Z" fill="#37E288" fill-opacity="0.1"/>
<path d="M104.6 168.919C103.928 168.919 103.265 168.765 102.662 168.467C102.06 168.169 101.534 167.737 101.126 167.203L56.8935 109.344C56.1917 108.424 55.8834 107.263 56.0364 106.116C56.1894 104.968 56.791 103.929 57.7095 103.225L77.0443 88.4386C77.9649 87.7371 79.1261 87.4294 80.2733 87.5829C81.4205 87.7364 82.46 88.3386 83.1638 89.2575L106.791 120.147L167.663 54.9677C168.454 54.1203 169.549 53.6218 170.708 53.5819C171.866 53.542 172.993 53.964 173.841 54.755L191.616 71.3651C192.464 72.1562 192.962 73.2514 193.002 74.41C193.042 75.5685 192.62 76.6955 191.829 77.543L124.366 149.788C123.572 150.625 122.48 151.115 121.327 151.15C120.174 151.185 119.054 150.763 118.211 149.976C117.368 149.189 116.87 148.101 116.826 146.948C116.782 145.796 117.195 144.673 117.975 143.823L182.469 74.7746L171.066 64.1266L109.638 129.9C109.204 130.364 108.674 130.729 108.086 130.967C107.497 131.206 106.863 131.313 106.228 131.282C105.593 131.251 104.973 131.081 104.41 130.786C103.848 130.49 103.357 130.076 102.971 129.571L78.8714 98.0288L66.4808 107.505L108.067 161.893C108.562 162.541 108.866 163.313 108.945 164.124C109.024 164.935 108.875 165.752 108.514 166.483C108.154 167.213 107.596 167.829 106.904 168.259C106.213 168.69 105.414 168.918 104.6 168.919Z" fill="#1DC86D"/>
<path opacity="0.5" d="M228.05 40.7523C228.286 39.7492 229.714 39.7492 229.95 40.7523L231.969 49.3052C232.054 49.6652 232.335 49.9464 232.695 50.0313L241.248 52.0496C242.251 52.2863 242.251 53.7137 241.248 53.9504L232.695 55.9687C232.335 56.0536 232.054 56.3348 231.969 56.6948L229.95 65.2477C229.714 66.2508 228.286 66.2508 228.05 65.2477L226.031 56.6948C225.946 56.3348 225.665 56.0536 225.305 55.9687L216.752 53.9504C215.749 53.7137 215.749 52.2863 216.752 52.0496L225.305 50.0313C225.665 49.9464 225.946 49.6652 226.031 49.3052L228.05 40.7523Z" fill="#17CC6D"/>
<path opacity="0.5" d="M203.415 140.463C203.561 139.846 204.439 139.846 204.585 140.463L205.827 145.726C205.879 145.948 206.052 146.121 206.274 146.173L211.537 147.415C212.154 147.561 212.154 148.439 211.537 148.585L206.274 149.827C206.052 149.879 205.879 150.052 205.827 150.274L204.585 155.537C204.439 156.154 203.561 156.154 203.415 155.537L202.173 150.274C202.121 150.052 201.948 149.879 201.726 149.827L196.463 148.585C195.846 148.439 195.846 147.561 196.463 147.415L201.726 146.173C201.948 146.121 202.121 145.948 202.173 145.726L203.415 140.463Z" fill="#17CC6D"/>
<path opacity="0.5" d="M48.0496 170.752C48.2863 169.749 49.7137 169.749 49.9504 170.752L51.9687 179.305C52.0536 179.665 52.3348 179.946 52.6948 180.031L61.2477 182.05C62.2508 182.286 62.2508 183.714 61.2477 183.95L52.6948 185.969C52.3348 186.054 52.0536 186.335 51.9687 186.695L49.9504 195.248C49.7137 196.251 48.2863 196.251 48.0496 195.248L46.0313 186.695C45.9464 186.335 45.6652 186.054 45.3052 185.969L36.7523 183.95C35.7492 183.714 35.7492 182.286 36.7523 182.05L45.3052 180.031C45.6652 179.946 45.9464 179.665 46.0313 179.305L48.0496 170.752Z" fill="#17CC6D"/>
<path opacity="0.5" d="M45.2689 70.5787C45.451 69.8071 46.549 69.8071 46.7311 70.5787L48.2836 77.1578C48.3489 77.4348 48.5652 77.6511 48.8422 77.7164L55.4213 79.2689C56.1929 79.451 56.1929 80.549 55.4213 80.7311L48.8422 82.2836C48.5652 82.3489 48.3489 82.5652 48.2836 82.8422L46.7311 89.4213C46.549 90.1929 45.451 90.1929 45.2689 89.4213L43.7164 82.8422C43.6511 82.5652 43.4348 82.3489 43.1578 82.2836L36.5787 80.7311C35.8071 80.549 35.8071 79.451 36.5787 79.2689L43.1578 77.7164C43.4348 77.6511 43.6511 77.4348 43.7164 77.1578L45.2689 70.5787Z" fill="#17CC6D"/>
</g>
<defs>
<clipPath id="clip0_70_12539">
<rect width="256" height="215" fill="white"/>
</clipPath>
</defs>
</svg>
